# xmcd
# Copyright (c) 1998 CDDB Inc.
#
# Track frame offsets:
#	150
#	12787
#	29675
#	39125
#	49612
#	60857
#	72412
#	82137
#	92492
#	107525
#
# Disc length: 1602 seconds
#
# Revision: 1
# Processed by: cddbd v1.4PL0 Copyright (c) Steve Scherf et al.
# Submitted via: audiograbber 1.70
#
DISCID=7106400a
DTITLE=Volume 1 - Country's Greatest Hits of the 60's
DYEAR=1900
DGENRE=
TTITLE0=Bill Anderson - Still
TTITLE1=Patsy Cline - Faded Love
TTITLE2=Burl Ives - A Little Bitty Tear
TTITLE3=Warner Mack - The Bridge Washed Out
TTITLE4=Hank Thompson - Smoky The Bar
TTITLE5=Conway Twitty - I Love You More Today
TTITLE6=Loretta Lynn - Don't Come Home A' Drinkin
TTITLE7=Loretta Lynn - Dear Uncle Sam
TTITLE8=Roy Clark - Yesterday When I Was Young
TTITLE9=Patsy Cline - I Fall To Pieces
EXTD=
EXTT0=
EXTT1=
EXTT2=
EXTT3=
EXTT4=
EXTT5=
EXTT6=
EXTT7=
EXTT8=
EXTT9=
PLAYORDER=
